:SAMPLES-PER-SECOND 30
:FULLY-SPECIFIED
:DEGREES
605
root  -47.6875 34.9471 1.50707 -173.27 74.6755 -177.424
RightUpLeg  -2.43024 -12.1246 -2.71175
RightLeg  7.3789 2.59318 0.168614
RightFoot  3.64504 0.00576559 0.312905
RightToes  -32.1216 -0.158 -0.268393
Spine  -2.34146 0.110751 0.439269
Spine1  -4.43716 0.409694 1.68703
HEad  -85.5813 -0.966089 12.3967
LeftShoulder1  -1.94126e-019 -3.10601e-018 -2.51263e-017
LeftArm  38.7001 -8.04859 -73.3409
LeftForeArm  158.046 -66.0282 -156.442
LeftHand  -0.396438 3.82397 29.119
RightShoulder  -4.96962e-017 0 -2.36833e-017
RightArm  26.4784 -2.5433 70.6322
RightForeArm  177.508 65.6527 159.107
RightHand  1.27488 -9.12086 -37.87
LeftUpLeg  -2.28186 1.98832 5.3002
LeftLeg  6.85694 13.1219 0.720586
LeftFoot  6.22623 -0.0805529 1.64256
LeftToes  -25.7736 1.83942e-006 5.51297e-008
606
root  -47.7569 34.9479 1.47763 -173.31 74.6787 -177.575
RightUpLeg  -2.6984 -12.1769 -2.7833
RightLeg  7.49677 2.62581 0.176145
RightFoot  3.71128 0.00634203 0.318123
RightToes  -32.1846 -0.158231 -0.268612
Spine  -2.24478 0.170068 0.431678
Spine1  -4.24628 0.527854 1.66573
HEad  -84.8718 -1.22533 12.3329
LeftShoulder1  -1.94126e-019 -3.10601e-018 -2.51263e-017
LeftArm  38.2962 -8.0483 -73.5228
LeftForeArm  157.121 -66.9961 -155.285
LeftHand  -0.442062 3.62019 28.7135
RightShoulder  -4.96962e-017 0 -2.36833e-017
RightArm  25.8161 -2.60247 70.6085
RightForeArm  175.874 66.4321 158.185
RightHand  1.23722 -9.0784 -37.2452
LeftUpLeg  -2.60146 2.08034 5.18477
LeftLeg  7.10161 13.0341 0.771159
LeftFoot  6.13492 -0.0797838 1.61163
LeftToes  -25.6074 1.83942e-006 5.51297e-008
607
root  -47.8093 34.9496 1.44298 -173.24 74.8092 -177.59
RightUpLeg  -2.85118 -12.1811 -2.84603
RightLeg  7.44539 2.77424 0.183541
RightFoot  3.82444 0.0064103 0.332487
RightToes  -32.3296 -0.158551 -0.268894
Spine  -2.19392 0.215023 0.421576
Spine1  -4.14627 0.618803 1.64059
HEad  -83.5082 -1.54216 12.232
LeftShoulder1  -1.94126e-019 -3.10601e-018 -2.51263e-017
LeftArm  37.7738 -7.7806 -73.7433
LeftForeArm  155.684 -68.6573 -153.09
LeftHand  -0.44469 3.55984 27.9254
RightShoulder  -4.96962e-017 0 -2.36833e-017
RightArm  25.0016 -2.84732 70.6306
RightForeArm  173.469 68.1519 156.076
RightHand  1.16359 -8.95473 -36.3431
LeftUpLeg  -2.77316 2.22181 5.09097
LeftLeg  7.19328 13.0469 0.792659
LeftFoot  6.08443 -0.080267 1.60151
LeftToes  -25.4915 1.83942e-006 5.51297e-008
608
root  -47.8497 34.9532 1.40417 -173.119 75.0482 -177.542
RightUpLeg  -2.93785 -12.1848 -2.89779
RightLeg  7.28338 2.96729 0.187813
RightFoot  3.9965 0.00611018 0.353256
RightToes  -32.4032 -0.158948 -0.269227
Spine  -2.1875 0.248856 0.412865
Spine1  -4.13112 0.692564 1.61774
HEad  -81.5843 -2.09486 11.8824
LeftShoulder1  -1.94126e-019 -3.10601e-018 -2.51263e-017
LeftArm  36.9781 -7.1435 -73.9831
LeftForeArm  152.724 -71.5612 -148.281
LeftHand  -0.596491 2.81357 26.6173
RightShoulder  -4.96962e-017 0 -2.36833e-017
RightArm  23.9868 -3.24781 70.626
RightForeArm  169.647 71.1688 151.567
RightHand  0.97557 -8.50206 -35.0384
LeftUpLeg  -2.83385 2.27658 4.9947
LeftLeg  7.17055 13.2307 0.798425
LeftFoot  6.08663 -0.0826795 1.623
LeftToes  -25.3952 1.83942e-006 5.51297e-008
609
root  -47.8765 34.9625 1.36113 -172.943 75.4534 -177.456
RightUpLeg  -2.95214 -11.9279 -2.94794
RightLeg  6.91843 3.10825 0.176817
RightFoot  4.29199 0.00556427 0.377935
RightToes  -32.6899 -0.159408 -0.269603
Spine  -2.21904 0.276333 0.423003
Spine1  -4.18995 0.756184 1.63181
HEad  -79.1491 -2.7755 11.3524
LeftShoulder1  -1.94126e-019 -3.10601e-018 -2.51263e-017
LeftArm  35.742 -5.89688 -74.4596
LeftForeArm  145.423 -75.6474 -137.598
LeftHand  -0.809966 1.61377 24.7241
RightShoulder  -4.96962e-017 0 -2.36833e-017
RightArm  22.7919 -3.74802 70.6254
RightForeArm  161.256 75.3961 141.669
RightHand  0.708214 -7.83176 -32.6689
LeftUpLeg  -2.69619 2.39616 4.8843
LeftLeg  6.82261 13.5419 0.735199
LeftFoot  6.19415 -0.0874884 1.68363
LeftToes  -25.222 1.83942e-006 5.51297e-008
610
root  -47.8953 34.9714 1.31649 -172.699 75.976 -177.311
RightUpLeg  -2.95336 -11.5377 -2.99338
RightLeg  6.50422 3.25211 0.161372
RightFoot  4.5669 0.00487462 0.404323
RightToes  -32.6853 -0.15992 -0.27001
Spine  -2.25701 0.201653 0.354362
Spine1  -4.26577 0.622585 1.48877
HEad  -76.4849 -3.18754 11.046
LeftShoulder1  -1.94126e-019 -3.10601e-018 -2.51263e-017
LeftArm  33.9185 -4.24903 -74.8339
LeftForeArm  124.124 -79.5618 -112.792
LeftHand  -0.97551 0.163424 21.6253
RightShoulder  -4.96962e-017 0 -2.36833e-017
RightArm  21.3935 -4.18472 71.2061
RightForeArm  136.765 79.8609 115.825
RightHand  0.32705 -6.72711 -28.1425
LeftUpLeg  -2.42304 2.63733 4.78554
LeftLeg  6.25643 13.8142 0.614283
LeftFoot  6.32597 -0.092396 1.74796
LeftToes  -24.9866 1.83942e-006 5.51297e-008
611
root  -47.9071 34.9811 1.26101 -172.51 76.5714 -177.242
RightUpLeg  -2.93515 -11.0878 -3.07244
RightLeg  6.00034 3.39861 0.138636
RightFoot  4.91075 0.00385812 0.434293
RightToes  -32.7899 -0.16047 -0.27044
Spine  -2.34174 0.168396 0.365051
Spine1  -4.44076 0.561364 1.50483
HEad  -73.4036 -3.81689 10.4306
LeftShoulder1  -1.94126e-019 -3.10601e-018 -2.51263e-017
LeftArm  31.4447 -2.21446 -75.9669
LeftForeArm  80.1507 -79.5974 -66.011
LeftHand  -1.023 -1.68644 16.9003
RightShoulder  -4.96962e-017 0 -2.36833e-017
RightArm  19.8273 -4.62086 71.8252
RightForeArm  86.6973 79.9183 64.1473
RightHand  -0.116738 -4.80383 -21.3966
LeftUpLeg  -2.06694 2.87006 4.63773
LeftLeg  5.52826 14.2005 0.45235
LeftFoot  6.53849 -0.0992541 1.84505
LeftToes  -24.8179 1.83942e-006 5.51297e-008
612
root  -47.9173 34.9922 1.20893 -172.203 77.1815 -177.069
RightUpLeg  -2.97507 -10.7535 -3.1128
RightLeg  5.57202 3.5973 0.112687
RightFoot  5.29383 0.00210784 0.472914
RightToes  -33.1014 -0.161046 -0.270883
Spine  -2.36853 0.11324 0.355458
Spine1  -4.51023 0.450417 1.47932
HEad  -70.3569 -4.44817 9.83924
LeftShoulder1  -1.94126e-019 -3.10601e-018 -2.51263e-017
LeftArm  28.0852 -0.275811 -77.4534
LeftForeArm  50.2083 -73.4933 -34.0933
LeftHand  -0.823868 -4.48449 9.95799
RightShoulder  -4.96962e-017 0 -2.36833e-017
RightArm  18.4412 -4.57269 72.8761
RightForeArm  56.9265 72.6024 29.9261
RightHand  -0.395225 -1.92614 -13.0658
LeftUpLeg  -1.74329 3.22867 4.52287
LeftLeg  4.8348 14.4814 0.287697
LeftFoot  6.71954 -0.104733 1.92341
LeftToes  -24.4972 1.83942e-006 5.51297e-008
613
root  -47.9249 34.9976 1.15611 -171.674 77.7994 -176.673
RightUpLeg  -2.98309 -10.2827 -3.12699
RightLeg  5.08628 3.7564 0.0931039
RightFoot  5.61143 0.000546413 0.506262
RightToes  -32.8932 -0.161635 -0.271327
Spine  -2.42447 0.0571313 0.353435
Spine1  -4.65223 0.332871 1.47094
HEad  -67.5241 -5.1004 9.5285
LeftShoulder1  -1.94126e-019 -3.10601e-018 -2.51263e-017
LeftArm  25.0735 1.3609 -79.2123
LeftForeArm  37.4744 -64.2507 -19.9515
LeftHand  -0.361019 -5.21916 4.25913
RightShoulder  -4.96962e-017 0 -2.36833e-017
RightArm  17.8819 -4.38491 74.3799
RightForeArm  50.0375 61.0945 15.6436
RightHand  -0.38459 0.965703 -7.14246
LeftUpLeg  -1.45014 3.61293 4.45387
LeftLeg  4.20224 14.7357 0.131805
LeftFoot  6.8825 -0.109568 1.99474
LeftToes  -24.4641 1.83942e-006 5.51297e-008
614
root  -47.9193 35.0006 1.10325 -170.935 78.358 -176.097
RightUpLeg  -2.97286 -9.99165 -3.10231
RightLeg  4.54908 3.99433 0.0614544
RightFoot  6.01108 -0.00231871 0.554917
RightToes  -33.1066 -0.162224 -0.271764
Spine  -2.47616 0.0653396 0.329684
Spine1  -4.79741 0.336848 1.41664
HEad  -64.8718 -5.97297 9.15018
LeftShoulder1  -1.94126e-019 -3.10601e-018 -2.51263e-017
LeftArm  22.5241 2.92567 -81.2778
LeftForeArm  31.159 -53.1377 -12.5258
LeftHand  -0.1306 -4.18531 1.8605
RightShoulder  -4.96962e-017 0 -2.36833e-017
RightArm  17.6802 -4.65085 76.2109
RightForeArm  51.9763 47.0888 8.407
RightHand  -0.406693 2.33688 -6.30658
LeftUpLeg  -1.29454 4.06473 4.42568
LeftLeg  3.80824 14.8751 0.0319344
LeftFoot  6.89648 -0.110731 2.01224
LeftToes  -24.2232 1.83942e-006 5.51297e-008
615
root  -47.9156 34.9975 1.03584 -170.42 78.5843 -175.761
RightUpLeg  -2.93688 -10.286 -3.15845
RightLeg  4.05816 4.53288 0.030779
RightFoot  6.32193 -0.00746889 0.632152
RightToes  -33.2622 -0.162802 -0.272183
Spine  -2.48023 0.0439448 0.299998
Spine1  -4.85662 0.277901 1.35121
HEad  -62.772 -6.90955 9.00926
LeftShoulder1  -1.94126e-019 -3.10601e-018 -2.51263e-017
LeftArm  19.8194 4.54354 -83.3586
LeftForeArm  31.5652 -40.9953 -7.71093
LeftHand  -0.176544 -3.08061 2.65451
RightShoulder  -4.96962e-017 0 -2.36833e-017
RightArm  15.2745 -5.42896 78.4275
RightForeArm  58.324 31.1432 3.74036
RightHand  -0.544344 1.87935 -8.86238
LeftUpLeg  -1.32377 4.2299 4.34305
LeftLeg  3.64451 14.99 -0.0101472
LeftFoot  6.83393 -0.11008 2.00503
LeftToes  -24.0514 1.83942e-006 5.51297e-008
616
root  -47.8958 34.9852 0.979725 -169.864 78.8699 -175.514
RightUpLeg  -3.0578 -10.3196 -3.17894
RightLeg  3.65322 4.81927 -0.00138868
RightFoot  6.5345 -0.0108377 0.679137
RightToes  -33.4803 -0.163354 -0.272575
Spine  -2.46725 0.114453 0.261349
Spine1  -4.87603 0.404699 1.25615
HEad  -61.9 -7.61064 9.24493
LeftShoulder1  -1.94126e-019 -3.10601e-018 -2.51263e-017
LeftArm  13.7418 6.38174 -85.163
LeftForeArm  37.966 -29.172 -4.97903
LeftHand  -0.377579 -2.54731 5.73871
RightShoulder  -4.96962e-017 0 -2.36833e-017
RightArm  1.27506 -5.95082 80.357
RightForeArm  69.5655 13.6592 1.79923
RightHand  -0.567459 -0.0684509 -12.4146
LeftUpLeg  -1.45353 4.20094 4.23722
LeftLeg  3.49866 15.3162 -0.0488575
LeftFoot  6.76249 -0.109875 2.02108
LeftToes  -24.0265 1.83942e-006 5.51297e-008
617
root  -47.8518 34.9016 0.930068 -169.429 78.9094 -175.505
RightUpLeg  -4.03031 -10.533 -3.20012
RightLeg  4.92925 5.03933 0.110799
RightFoot  5.78936 -0.00918157 0.648795
RightToes  -33.593 -0.16387 -0.27293
Spine  -2.37535 0.302317 0.228818
Spine1  -4.77608 0.882877 1.0674
HEad  -61.8963 -8.28446 9.83352
LeftShoulder1  -1.94126e-019 -3.10601e-018 -2.51263e-017
LeftArm  2.46027 8.90956 -85.8275
LeftForeArm  46.1761 -20.778 -3.81008
LeftHand  -0.513026 -1.93275 8.32201
RightShoulder  -4.96962e-017 0 -2.36833e-017
RightArm  -19.3646 -8.12247 79.4743
RightForeArm  79.7791 4.40537 0.684227
RightHand  -0.226639 -3.82822 -16.0778
LeftUpLeg  -2.48016 4.14284 4.13931
LeftLeg  5.0134 15.4109 0.353231
LeftFoot  5.90926 -0.0838669 1.78635
LeftToes  -23.8874 1.83942e-006 5.51297e-008
618
root  -47.7522 34.8202 0.917262 -168.104 79.4845 -174.63
RightUpLeg  -4.92452 -9.84809 -3.01781
RightLeg  5.93767 4.86052 0.192504
RightFoot  5.16861 -0.00459406 0.570289
RightToes  -33.5524 -0.164334 -0.273237
Spine  -2.36616 0.39946 0.282174
Spine1  -4.80119 1.03173 1.10836
HEad  -62.0406 -8.43853 10.3799
LeftShoulder1  -1.94126e-019 -3.10601e-018 -2.51263e-017
LeftArm  -4.69133 13.1408 -84.6258
LeftForeArm  45.2866 -16.3891 -2.94201
LeftHand  -0.502393 -0.412577 10.1534
RightShoulder  -4.96962e-017 0 -2.36833e-017
RightArm  -31.4308 -13.1659 77.1216
RightForeArm  78.1552 2.72792 0.402672
RightHand  0.240099 -7.13006 -17.0871
LeftUpLeg  -3.11629 5.3483 4.27702
LeftLeg  5.96472 14.7932 0.582371
LeftFoot  5.21816 -0.061453 1.51008
LeftToes  -24.2053 1.83942e-006 5.51297e-008
619
root  -47.6771 34.7487 0.886064 -167.631 79.5572 -174.487
RightUpLeg  -5.68912 -9.73506 -2.98318
RightLeg  7.0605 4.76912 0.28253
RightFoot  4.56061 -0.000506369 0.491886
RightToes  -33.3616 -0.164737 -0.273487
Spine  -2.37532 0.113415 0.388842
Spine1  -4.83519 0.323105 1.29973
HEad  -62.1258 -8.58378 10.9782
LeftShoulder1  -1.94126e-019 -3.10601e-018 -2.51263e-017
LeftArm  -8.70294 18.547 -82.5112
LeftForeArm  39.6258 -13.5695 -2.4117
LeftHand  -0.434367 0.0243535 9.46574
RightShoulder  -4.96962e-017 0 -2.36833e-017
RightArm  -35.9857 -19.1577 74.7039
RightForeArm  71.8366 4.08954 0.658013
RightHand  0.144579 -6.61994 -15.314
LeftUpLeg  -3.74444 5.63225 4.26778
LeftLeg  6.91009 14.5924 0.813192
LeftFoot  4.63795 -0.046324 1.30584
LeftToes  -24.2274 1.83942e-006 5.51297e-008
